<svg xmlns="http://www.w3.org/2000/svg" xmlns:xlink="http://www.w3.org/1999/xlink" width="216" height="113" viewBox="-15 -125 216 113"><title>1PHWCR</title><style type="text/css">
path, polyline, polygon {stroke-linejoin:round;}
rect, circle, ellipse, polyline, line, polygon, path {shape-rendering:crispEdges;}
</style>
<rect x="-15" y="-125" width="216" height="113" fill="#FFFFFF" stroke="none"/><g xmlns="http://www.w3.org/2000/svg" id="g1" c_spiceCmd="null" c_para="Prefix Start`1" importFlag="" c_portOfADImportHack="" c_transformList=""><g c_origin="50,-65" c_para="package``spicePre`X`RATIO`1`spiceSymbolName`XFMR`Contributor`EasyEDA`Supplier Part``Supplier`YUJING`Manufacturer Part``" c_partid="part_lib_gge4231104aa61878af" id="gge4231104aa61878af" locked="0" c_shapetype="group" c_etype="pinpart" puuid="" uuid="a33e313414b24ddd951841d2ce374387" convert_to_pcb="yes" datastrid="5e2d6a4b015c49e3838232fabc41609a" pdatastrid="" utime="1594193991" add_into_bom="yes" ><g c_partid="part_annotation" id="gge26347" display="none"  c_shapetype="group"><text c_note="note_name" x="44.55" y="-90" fill="#000080" font-family="Arial" font-size="7pt" font-weight="" font-style="" dominant-baseline="" text-anchor="start"  >Transformer_US</text></g><g c_partid="part_annotation" id="gge26350" display="none"  c_shapetype="group"><text c_note="note_pre" x="44.55" y="-99" fill="#000080" font-family="Arial" font-size="7pt" font-weight="" font-style="" dominant-baseline="" text-anchor="start"  >T1</text></g><path d="M 60 -75 A 4 5 0 0 1 60 -85" id="gge19456" locked="0"   stroke="#0000FF" stroke-width="1" c_helper_type="arc1" fill="none" /><path d="M 40 -55 A 4 5 0 0 1 40 -45" id="gge19459" locked="0"   stroke="#0000FF" stroke-width="1" c_helper_type="arc1" fill="none" /><path d="M 60 -45 A 4 5 0 0 1 60 -55" id="gge19462" locked="0"   stroke="#0000FF" stroke-width="1" c_helper_type="arc1" fill="none" /><path d="M 60 -55 A 4 5 0 0 1 60 -65" id="gge19465" locked="0"   stroke="#0000FF" stroke-width="1" c_helper_type="arc1" fill="none" /><path d="M 60 -65 A 4 5 0 0 1 60 -75" id="gge19468" locked="0"   stroke="#0000FF" stroke-width="1" c_helper_type="arc1" fill="none" /><path d="M 40 -65 A 4 5 0 0 1 40 -55" id="gge19471" locked="0"   stroke="#0000FF" stroke-width="1" c_helper_type="arc1" fill="none" /><path d="M 40 -75 A 4 5 0 0 1 40 -65" id="gge19474" locked="0"   stroke="#0000FF" stroke-width="1" c_helper_type="arc1" fill="none" /><path d="M 40 -85 A 4 5 0 0 1 40 -75" id="gge19477" locked="0"   stroke="#0000FF" stroke-width="1" c_helper_type="arc1" fill="none" /><g c_partid="part_pin" c_etype="pinpart"  c_show="show"  c_elec="0" c_spicepin="1" c_origin="30,-85" id="gge19480" locked="0" c_rotation="180"><text x="44" y="-85" font-family="Verdana" font-size="7pt" fill="#0000FF" text-anchor="start" c_pinname="1" display="none"  >1</text><text x="36" y="-89" font-family="Verdana" font-size="7pt" fill="#0000FF" text-anchor="end" c_pinnumber="1" display="none"  >1</text><circle c_pindot="true" class="pindot" cx="30" cy="-85" r="2" fill="none" stroke="none" /><path d="M 30 -85 h 10" fill="none" stroke="#0000FF" stroke-width="1"/><circle cx="37" cy="-85" r="3" stroke="#0000FF" fill="none" stroke-width="1" display="none" /><path d="M 40 -82 L 43 -85 L 40 -88" fill="none" stroke="#0000FF" stroke-width="1"  display="none" /></g><g c_partid="part_pin" c_etype="pinpart"  c_show="show"  c_elec="0" c_spicepin="3" c_origin="70,-85" id="gge19501" locked="0" c_rotation="0"><text x="56" y="-85" font-family="Verdana" font-size="7pt" fill="#0000FF" text-anchor="end" c_pinname="3" display="none"  >3</text><text x="64" y="-89" font-family="Verdana" font-size="7pt" fill="#0000FF" text-anchor="start" c_pinnumber="3" display="none"  >3</text><circle c_pindot="true" class="pindot" cx="70" cy="-85" r="2" fill="none" stroke="none" /><path d="M 70 -85 h -10" fill="none" stroke="#0000FF" stroke-width="1"/><circle cx="63" cy="-85" r="3" stroke="#0000FF" fill="none" stroke-width="1" display="none" /><path d="M 60 -88 L 57 -85 L 60 -82" fill="none" stroke="#0000FF" stroke-width="1"  display="none" /></g><g c_partid="part_pin" c_etype="pinpart"  c_show="show"  c_elec="0" c_spicepin="2" c_origin="30,-45" id="gge19522" locked="0" c_rotation="180"><text x="44" y="-45" font-family="Verdana" font-size="7pt" fill="#0000FF" text-anchor="start" c_pinname="2" display="none"  >2</text><text x="36" y="-49" font-family="Verdana" font-size="7pt" fill="#0000FF" text-anchor="end" c_pinnumber="2" display="none"  >2</text><circle c_pindot="true" class="pindot" cx="30" cy="-45" r="2" fill="none" stroke="none" /><path d="M 30 -45 h 10" fill="none" stroke="#0000FF" stroke-width="1"/><circle cx="37" cy="-45" r="3" stroke="#0000FF" fill="none" stroke-width="1" display="none" /><path d="M 40 -42 L 43 -45 L 40 -48" fill="none" stroke="#0000FF" stroke-width="1"  display="none" /></g><g c_partid="part_pin" c_etype="pinpart"  c_show="show"  c_elec="0" c_spicepin="4" c_origin="70,-45" id="gge19543" locked="0" c_rotation="0"><text x="56" y="-45" font-family="Verdana" font-size="7pt" fill="#0000FF" text-anchor="end" c_pinname="4" display="none"  >4</text><text x="64" y="-49" font-family="Verdana" font-size="7pt" fill="#0000FF" text-anchor="start" c_pinnumber="4" display="none"  >4</text><circle c_pindot="true" class="pindot" cx="70" cy="-45" r="2" fill="none" stroke="none" /><path d="M 70 -45 h -10" fill="none" stroke="#0000FF" stroke-width="1"/><circle cx="63" cy="-45" r="3" stroke="#0000FF" fill="none" stroke-width="1" display="none" /><path d="M 60 -48 L 57 -45 L 60 -42" fill="none" stroke="#0000FF" stroke-width="1"  display="none" /></g><polyline points="48 -85 48 -45" stroke="#0000FF" id="gge19564" locked="0" stroke-width="1"   fill="none" stroke-linecap="round" /><polyline points="52.5 -85 52.5 -45" stroke="#0000FF" id="gge19567" locked="0" stroke-width="1"   fill="none" stroke-linecap="round" /><ellipse cx="36.25" cy="-81.25" rx="1.25" ry="1.25" id="gge19570" locked="0" stroke="#0000FF" stroke-width="1" fill="none"   /><ellipse cx="63.75" cy="-81.25" rx="1.25" ry="1.25" id="gge19573" locked="0" stroke="#0000FF" stroke-width="1" fill="none"   /></g><g c_origin="5,-65" c_para="package`HDR1X2`nameAlias`Value`Contributor`EasyEDA`spiceSymbolName`VSin`sim`true`Supplier Part``Supplier``spicePre`V`Manufacturer Part``" c_partid="part_lib_gge536ddad00640d2f5" id="gge536ddad00640d2f5" locked="0" c_shapetype="group" c_etype="pinpart" puuid="05ca98c924be4d7f9936cfbc00888d3a" uuid="dacce69b1c194bea92742be765e82cfc" convert_to_pcb="yes" datastrid="ae900e27ca8342c2889498b339eba763" pdatastrid="08c10543f49b4a17aff1548cbba1e4a6" utime="1594193991" add_into_bom="yes" ><g c_partid="part_annotation" id="gge26353" display="none"  c_shapetype="group"><text c_note="note_name" x="17" y="-52.75" fill="#000080" font-family="Arial" font-size="7pt" font-weight="" font-style="" dominant-baseline="" text-anchor="start"  >SIN(0 1 50 10m 1 0)</text></g><g c_partid="part_annotation" id="gge26356" display="none"  c_shapetype="group"><text c_note="note_pre" x="17" y="-61.75" fill="#000080" font-family="Arial" font-size="7pt" font-weight="" font-style="" dominant-baseline="" text-anchor="start"  >V1</text></g><ellipse cx="5" cy="-65" rx="10" ry="10" id="gge19942" locked="0" stroke="#0000FF" stroke-width="1" fill="none"   /><g c_partid="part_pin" c_etype="pinpart"  c_show="show"  c_elec="0" c_spicepin="1" c_origin="5,-85" id="gge19945" locked="0" c_rotation="90"><text x="5" y="-73" font-family="Verdana" font-size="7pt" fill="#0000FF" text-anchor="end" c_pinname="1" display="none" transform="rotate(270,5,-73)" >1</text><text x="1" y="-79" font-family="Verdana" font-size="7pt" fill="#0000FF" text-anchor="start" c_pinnumber="1" display="none" transform="rotate(270,1,-79)" >1</text><circle c_pindot="true" class="pindot" cx="5" cy="-85" r="2" fill="none" stroke="none" /><path d="M 5 -75 v -10" fill="none" stroke="#0000FF" stroke-width="1"/><circle cx="5" cy="-98" r="3" stroke="#0000FF" fill="none" stroke-width="1" display="none" /><path d="M 2 -95 L 5 -92 L 8 -95" fill="none" stroke="#0000FF" stroke-width="1"  display="none" /></g><polyline points="3 -71 7 -71" stroke="#0000FF" id="gge19966" locked="0" stroke-width="1"   fill="none" stroke-linecap="round" /><polyline points="5 -73 5 -69" stroke="#0000FF" id="gge19969" locked="0" stroke-width="1"   fill="none" stroke-linecap="round" /><g c_partid="part_pin" c_etype="pinpart"  c_show="show"  c_elec="0" c_spicepin="2" c_origin="5,-45" id="gge19972" locked="0" c_rotation="270"><text x="5" y="-59" font-family="Verdana" font-size="7pt" fill="#0000FF" text-anchor="start" c_pinname="2" display="none" transform="rotate(270,5,-59)" >2</text><text x="1" y="-51" font-family="Verdana" font-size="7pt" fill="#0000FF" text-anchor="end" c_pinnumber="2" display="none" transform="rotate(270,1,-51)" >2</text><circle c_pindot="true" class="pindot" cx="5" cy="-45" r="2" fill="none" stroke="none" /><path d="M 5 -55 v 10" fill="none" stroke="#0000FF" stroke-width="1"/><circle cx="5" cy="-32" r="3" stroke="#0000FF" fill="none" stroke-width="1" display="none" /><path d="M 8 -35 L 5 -38 L 2 -35" fill="none" stroke="#0000FF" stroke-width="1"  display="none" /></g><polyline points="7 -59 3 -59" stroke="#0000FF" id="gge19993" locked="0" stroke-width="1"   fill="none" stroke-linecap="round" /><path d="M 0 -65 C 5 -75 5 -55 10 -65" id="gge19996" locked="0" c_etype=""  stroke="#0000FF" stroke-width="1"  fill="none" /></g><g c_origin="110,-90" c_para="package``nameAlias`Model`spicePre`X`Contributor`Matteo01`link`https://easyeda.com/editor#id=57484b1c27dd43aaa8aada2cb5f5fc81`Supplier``sim`true`spiceSymbolName`SCR`Manufacturer Part``" c_partid="part_lib_gge6eba797c1580d4dc" id="gge6eba797c1580d4dc" locked="0" c_shapetype="group" c_etype="pinpart" puuid="" uuid="8829841c754b43329dbe8602f3543ab0" convert_to_pcb="yes" datastrid="7606adb0efa743e8aa325ab317f61206" pdatastrid="" utime="1701775348" add_into_bom="yes" c_rotation="90"><g c_partid="part_annotation" id="gge26359" display="none"  c_shapetype="group"><text c_note="note_name" x="104.03" y="-87" fill="#000080" font-family="Arial" font-size="7pt" font-weight="" font-style="" dominant-baseline="" text-anchor="start"  >SCR</text></g><g c_partid="part_annotation" id="gge26362" display="none"  c_shapetype="group"><text c_note="note_pre" x="104.03" y="-78" fill="#000080" font-family="Arial" font-size="7pt" font-weight="" font-style="" dominant-baseline="" text-anchor="start"  >U1</text></g><polyline points="112 -97 112 -113" stroke="#0000FF" id="gge22663" locked="0" stroke-width="1"   fill="none" stroke-linecap="round" /><g c_partid="part_pin" c_etype="pinpart"  c_show="show"  c_elec="0" c_spicepin="1" c_origin="90,-105" id="gge22666" locked="0" c_rotation="180"><text x="104" y="-105" font-family="Verdana" font-size="7pt" fill="#0000FF" text-anchor="start" c_pinname="A" display="none"  >A</text><text x="96" y="-109" font-family="Verdana" font-size="7pt" fill="#0000FF" text-anchor="end" c_pinnumber="1" display="none"  >1</text><circle c_pindot="true" class="pindot" cx="90" cy="-105" r="2" fill="none" stroke="none" /><path d="M 90 -105 h 10" fill="none" stroke="#0000FF" stroke-width="1"/><circle cx="97" cy="-105" r="3" stroke="#0000FF" fill="none" stroke-width="1" display="none" /><path d="M 100 -102 L 103 -105 L 100 -108" fill="none" stroke="#0000FF" stroke-width="1"  display="none" /></g><g c_partid="part_pin" c_etype="pinpart"  c_show="none" display="none" c_elec="0" c_spicepin="2" c_origin="120,-125" id="gge22687" locked="0" c_rotation="90"><text x="120" y="-111" font-family="Verdana" font-size="7pt" fill="#0000FF" text-anchor="end" c_pinname="G" display="none" transform="rotate(270,120,-111)" >G</text><text x="116" y="-119" font-family="Verdana" font-size="7pt" fill="#0000FF" text-anchor="start" c_pinnumber="2" display="none" transform="rotate(270,116,-119)" >2</text><circle c_pindot="true" class="pindot" cx="120" cy="-125" r="2" fill="none" stroke="none" /><path d="M 120 -125 v 10" fill="none" stroke="#0000FF" stroke-width="1"/><circle cx="120" cy="-118" r="3" stroke="#0000FF" fill="none" stroke-width="1" display="none" /><path d="M 117 -115 L 120 -112 L 123 -115" fill="none" stroke="#0000FF" stroke-width="1"  display="none" /></g><g c_partid="part_pin" c_etype="pinpart"  c_show="show"  c_elec="0" c_spicepin="3" c_origin="130,-105" id="gge22708" locked="0" c_rotation="0"><text x="116" y="-105" font-family="Verdana" font-size="7pt" fill="#0000FF" text-anchor="end" c_pinname="K" display="none"  >K</text><text x="124" y="-109" font-family="Verdana" font-size="7pt" fill="#0000FF" text-anchor="start" c_pinnumber="3" display="none"  >3</text><circle c_pindot="true" class="pindot" cx="130" cy="-105" r="2" fill="none" stroke="none" /><path d="M 130 -105 h -10" fill="none" stroke="#0000FF" stroke-width="1"/><circle cx="123" cy="-105" r="3" stroke="#0000FF" fill="none" stroke-width="1" display="none" /><path d="M 120 -108 L 117 -105 L 120 -102" fill="none" stroke="#0000FF" stroke-width="1"  display="none" /></g><polyline points="100 -105 120 -105" stroke="#0000FF" id="gge22729" locked="0" stroke-width="1"   fill="none" stroke-linecap="round" /><polyline points="120 -115 112 -107" stroke="#0000FF" id="gge22732" locked="0" stroke-width="1"   fill="none" stroke-linecap="round" /><path d="M 102 -111 L 112 -105 L 102 -98 Z " id="gge22735" locked="0" c_etype=""  stroke="#0000FF" stroke-width="1"  fill="#FFFFFF" /></g><g c_origin="170,-65" c_para="package`AXIAL-0.3`nameAlias`Value`Contributor`EasyEDA`sim`true`Supplier Part``Supplier`YUJING`spicePre`R`spiceSymbolName`Resistor1_US`Manufacturer Part``" c_partid="part_lib_gge45742d7211fa0516" id="gge45742d7211fa0516" locked="0" c_shapetype="group" c_etype="pinpart" puuid="b9efc06d0fb742f99a478d48de211eb9" uuid="a5cb8fc803084158bb825edf2c7447ef" convert_to_pcb="yes" datastrid="a796ceab706841f398857869ca70a042" pdatastrid="9208063e1bc747be88d803b5cd1353ef" utime="1594193991" add_into_bom="yes" c_rotation="90"><g c_partid="part_annotation" id="gge26335" display="none"  c_shapetype="group"><text c_note="note_name" x="177" y="-52.79" fill="#000080" font-family="Arial" font-size="7pt" font-weight="" font-style="" dominant-baseline="" text-anchor="start"  >1k</text></g><g c_partid="part_annotation" id="gge26338" display="none"  c_shapetype="group"><text c_note="note_pre" x="177" y="-61.79" fill="#000080" font-family="Arial" font-size="7pt" font-weight="" font-style="" dominant-baseline="" text-anchor="start"  >R1</text></g><polyline points="170 -50 165 -53 175 -58 165 -63 175 -67 165 -72 175 -77 170 -80" stroke="#0000FF" id="gge24655" locked="0" stroke-width="1"   fill="none" stroke-linecap="round" /><g c_partid="part_pin" c_etype="pinpart"  c_show="show"  c_elec="0" c_spicepin="1" c_origin="170,-45" id="gge24658" locked="0" c_rotation="270"><text x="170" y="-54" font-family="Verdana" font-size="7pt" fill="#0000FF" text-anchor="start" c_pinname="1" display="none" transform="rotate(270,170,-54)" >1</text><text x="166" y="-46" font-family="Verdana" font-size="7pt" fill="#0000FF" text-anchor="end" c_pinnumber="1" display="none" transform="rotate(270,166,-46)" >1</text><circle c_pindot="true" class="pindot" cx="170" cy="-45" r="2" fill="none" stroke="none" /><path d="M 170 -45 v -5" fill="none" stroke="#0000FF" stroke-width="1"/><circle cx="170" cy="-47" r="3" stroke="#0000FF" fill="none" stroke-width="1" display="none" /><path d="M 173 -50 L 170 -53 L 167 -50" fill="none" stroke="#0000FF" stroke-width="1"  display="none" /></g><g c_partid="part_pin" c_etype="pinpart"  c_show="show"  c_elec="0" c_spicepin="2" c_origin="170,-85" id="gge24679" locked="0" c_rotation="90"><text x="170" y="-76" font-family="Verdana" font-size="7pt" fill="#0000FF" text-anchor="end" c_pinname="2" display="none" transform="rotate(270,170,-76)" >2</text><text x="166" y="-84" font-family="Verdana" font-size="7pt" fill="#0000FF" text-anchor="start" c_pinnumber="2" display="none" transform="rotate(270,166,-84)" >2</text><circle c_pindot="true" class="pindot" cx="170" cy="-85" r="2" fill="none" stroke="none" /><path d="M 170 -85 v 5" fill="none" stroke="#0000FF" stroke-width="1"/><circle cx="170" cy="-83" r="3" stroke="#0000FF" fill="none" stroke-width="1" display="none" /><path d="M 167 -80 L 170 -77 L 173 -80" fill="none" stroke="#0000FF" stroke-width="1"  display="none" /></g></g><polyline c_etype="wire" c_shapetype="line" points="90 -105 70 -105 70 -85" stroke="#0000FF" id="gge26371" locked="0" stroke-width="1"   fill="none" stroke-linecap="round" /><polyline c_etype="wire" c_shapetype="line" points="30 -85 30 -105 5 -105 5 -85" stroke="#0000FF" id="gge26374" locked="0" stroke-width="1"   fill="none" stroke-linecap="round" /><polyline c_etype="wire" c_shapetype="line" points="170 -45 170 -25 70 -25 70 -45" stroke="#0000FF" id="gge26380" locked="0" stroke-width="1"   fill="none" stroke-linecap="round" /><polyline c_etype="wire" c_shapetype="line" points="130 -105 130 -105 150 -105 170 -105 170 -85" stroke="#0000FF" id="gge26386" locked="0" stroke-width="1"   fill="none" stroke-linecap="round" /><polyline c_etype="wire" c_shapetype="line" points="30 -45 30 -25 5 -25 5 -45" stroke="#0000FF" id="gge26389" locked="0" stroke-width="1"   fill="none" stroke-linecap="round" /><g c_partid="part_netLabel_Bar" c_etype="pinpart" c_origin="175,-105" id="gge26560" locked="0" c_shapetype="group" c_rotation="270"><circle c_pindot="true" class="pindot" cx="175" cy="-105" r="2" fill="none" stroke="none" /><g c_partid="part_annotation" id="gge26566" c_shapetype="group" display="none"><text x="191.5" y="-105" font-family="Times New Roman" font-size="9pt" fill="#000000" text-anchor="start" c_note="note_netflag" >netName</text></g><path d="M 185 -105 h -10" id="gge26572" locked="0" c_etype=""  stroke="#0000FF" stroke-width="1"  fill="none" /><ellipse cx="188" cy="-105" rx="3" ry="3" id="gge26575" locked="0" stroke="#0000FF" stroke-width="1" fill="none"   /></g><g c_partid="part_netLabel_Bar" c_etype="pinpart" c_origin="175,-25" id="gge26682" locked="0" c_shapetype="group" c_rotation="270"><circle c_pindot="true" class="pindot" cx="175" cy="-25" r="2" fill="none" stroke="none" /><g c_partid="part_annotation" id="gge26688" c_shapetype="group" display="none"><text x="191.5" y="-25" font-family="Times New Roman" font-size="9pt" fill="#000000" text-anchor="start" c_note="note_netflag" >netName</text></g><path d="M 185 -25 h -10" id="gge26694" locked="0" c_etype=""  stroke="#0000FF" stroke-width="1"  fill="none" /><ellipse cx="188" cy="-25" rx="3" ry="3" id="gge26697" locked="0" stroke="#0000FF" stroke-width="1" fill="none"   /></g><polyline points="175 -25 170 -25 170 -30" stroke="#0000FF" id="gge26700" locked="0" stroke-width="1" c_shapetype="line"  fill="none" stroke-linecap="round" /><polyline points="175 -105 170 -105" stroke="#0000FF" id="gge26706" locked="0" stroke-width="1" c_shapetype="line"  fill="none" stroke-linecap="round" /></g></svg>